<svg xmlns="http://www.w3.org/2000/svg" viewBox="0 0 24 24" width="24" height="24" aria-hidden="true"><path fill="#1DA1F2" d="M22 2.5c-.7.3-1.5.5-2.3.6.8-.5 1.4-1.2 1.7-2-.8.5-1.6.9-2.5 1.1C18.4 1 17.3.5 16.1.5c-2 0-3.5 1.6-3.5 3.6 0 .3 0 .6.1.9-3-.2-5.7-1.6-7.5-3.8-.4.6-.6 1.2-.6 2 0 1.2.6 2.3 1.6 2.9-.6 0-1.2-.2-1.7-.5v.1c0 1.9 1.3 3.5 3.1 3.9-.4.1-.9.2-1.3.2-.3 0-.6 0-.9-.1.6 1.9 2.4 3.3 4.6 3.4-1.7 1.3-3.9 2-6.3 2-.4 0-.8 0-1.2-.1 2.2 1.4 4.8 2.2 7.6 2.2 9.1 0 14.1-7.6 14.1-14.2v-.6c1-.8 1.7-1.7 2.3-2.6-.9.5-1.9.8-3 .9z"/></svg>